<?xml version="1.0" standalone="no"?>
<!DOCTYPE svg PUBLIC "-//W3C//DTD SVG 20010904//EN"
 "http://www.w3.org/TR/2001/REC-SVG-20010904/DTD/svg10.dtd">
<svg version="1.0" xmlns="http://www.w3.org/2000/svg"
 width="282.000000pt" height="282.000000pt" viewBox="0 0 282.000000 282.000000"
 preserveAspectRatio="xMidYMid meet">
<metadata>
Created by potrace 1.11, written by Peter Selinger 2001-2013
</metadata>
<g transform="translate(0.000000,282.000000) scale(0.100000,-0.100000)"
fill="#000000" stroke="none">
<path d="M1260 2787 c0 -19 21 -40 95 -96 l95 -71 0 -243 0 -242 -135 -135
-135 -135 0 -236 0 -237 92 -88 c51 -48 186 -168 300 -267 l207 -179 4 -52 c2
-28 4 42 5 155 l2 207 -85 72 -85 72 0 276 c0 274 0 275 20 257 19 -17 20 -31
20 -266 l0 -248 90 -76 90 -76 0 -253 0 -252 -52 -50 c-29 -28 -79 -72 -110
-98 l-57 -48 -3 78 -3 78 -80 70 c-44 39 -141 123 -214 186 -74 63 -152 130
-173 149 l-38 33 0 522 0 522 60 59 60 59 0 148 c0 125 -2 148 -15 148 -12 0
-15 -20 -15 -120 l0 -119 -101 -83 c-56 -46 -119 -96 -140 -113 l-38 -30 -1
-211 0 -211 -155 -142 -155 -142 0 -419 0 -418 188 -122 c103 -66 241 -156
307 -200 66 -43 159 -104 207 -135 l88 -57 257 169 c449 292 477 311 516 338
l37 26 0 252 0 253 -55 54 -55 54 0 181 0 180 -190 173 -190 173 -2 307 -3
307 -210 158 c-252 190 -245 185 -245 154z m-406 -1739 c33 -28 85 -74 114
-102 l52 -50 0 -121 0 -121 45 -44 45 -44 0 -73 c0 -40 -3 -73 -6 -73 -3 0
-40 30 -83 67 -42 38 -114 99 -159 137 l-82 69 0 204 c0 111 3 203 6 203 4 0
34 -23 68 -52z"/>
</g>
</svg>
